<svg width="253" height="257" viewBox="0 0 253 257" fill="none" xmlns="http://www.w3.org/2000/svg">
<path d="M76.856 162.96C71.608 162.96 66.584 162.224 61.784 160.752C56.984 159.216 53.176 157.264 50.36 154.896L54.68 145.2C57.368 147.312 60.696 149.072 64.664 150.48C68.632 151.888 72.696 152.592 76.856 152.592C80.376 152.592 83.224 152.208 85.4 151.44C87.576 150.672 89.176 149.648 90.2 148.368C91.224 147.024 91.736 145.52 91.736 143.856C91.736 141.808 91 140.176 89.528 138.96C88.056 137.68 86.136 136.688 83.768 135.984C81.464 135.216 78.872 134.512 75.992 133.872C73.176 133.232 70.328 132.496 67.448 131.664C64.632 130.768 62.04 129.648 59.672 128.304C57.368 126.896 55.48 125.04 54.008 122.736C52.536 120.432 51.8 117.488 51.8 113.904C51.8 110.256 52.76 106.928 54.68 103.92C56.664 100.848 59.64 98.416 63.608 96.624C67.64 94.768 72.728 93.84 78.872 93.84C82.904 93.84 86.904 94.352 90.872 95.376C94.84 96.4 98.296 97.872 101.24 99.792L97.304 109.488C94.296 107.696 91.192 106.384 87.992 105.552C84.792 104.656 81.72 104.208 78.776 104.208C75.32 104.208 72.504 104.624 70.328 105.456C68.216 106.288 66.648 107.376 65.624 108.72C64.664 110.064 64.184 111.6 64.184 113.328C64.184 115.376 64.888 117.04 66.296 118.32C67.768 119.536 69.656 120.496 71.96 121.2C74.328 121.904 76.952 122.608 79.832 123.312C82.712 123.952 85.56 124.688 88.376 125.52C91.256 126.352 93.848 127.44 96.152 128.784C98.52 130.128 100.408 131.952 101.816 134.256C103.288 136.56 104.024 139.472 104.024 142.992C104.024 146.576 103.032 149.904 101.048 152.976C99.128 155.984 96.152 158.416 92.12 160.272C88.088 162.064 83 162.96 76.856 162.96Z" fill="black"/>
<path d="M127.535 146.16L126.863 131.376L162.095 94.8H176.111L146.831 125.904L139.919 133.488L127.535 146.16ZM116.399 162V94.8H128.879V162H116.399ZM163.247 162L137.519 131.376L145.775 122.256L177.839 162H163.247Z" fill="black"/>
<path d="M198.067 162V135.408L200.851 143.088L171.667 94.8H185.011L208.435 133.68H200.947L224.563 94.8H236.851L207.667 143.088L210.547 135.408V162H198.067Z" fill="black"/>
<path d="M237 184H163V169H237V184ZM197.023 172.432C196.344 172.432 195.716 172.54 195.14 172.756C194.572 172.964 194.079 173.264 193.663 173.656C193.247 174.048 192.923 174.512 192.691 175.048C192.459 175.576 192.344 176.16 192.344 176.8C192.344 177.44 192.459 178.028 192.691 178.564C192.923 179.092 193.243 179.552 193.651 179.944C194.067 180.336 194.56 180.64 195.128 180.856C195.696 181.064 196.312 181.168 196.976 181.168C197.584 181.168 198.204 181.076 198.836 180.892C199.389 180.731 199.884 180.509 200.32 180.226L200.504 180.1V176.62H198.403V178.927C198.319 178.967 198.235 179.002 198.151 179.032C197.815 179.144 197.471 179.2 197.119 179.2C196.767 179.2 196.443 179.144 196.147 179.032C195.859 178.912 195.611 178.748 195.403 178.54C195.195 178.324 195.031 178.068 194.911 177.772C194.799 177.476 194.743 177.152 194.743 176.8C194.743 176.432 194.799 176.104 194.911 175.816C195.031 175.52 195.195 175.268 195.403 175.06C195.611 174.844 195.863 174.68 196.159 174.568C196.455 174.456 196.784 174.4 197.144 174.4C197.551 174.4 197.919 174.48 198.247 174.64C198.583 174.792 198.896 175.024 199.184 175.336L200.695 173.968C200.287 173.472 199.771 173.092 199.147 172.828C198.523 172.564 197.815 172.432 197.023 172.432ZM168.905 172.6V181H175.289V179.116H171.281V172.6H168.905ZM182.469 172.6V181H184.845V172.6H182.469ZM208.25 172.6V181H210.626V177.724H213.866V181H216.242V172.6H213.866V175.756H210.626V172.6H208.25ZM223.366 172.6V174.484H225.946V181H228.322V174.484H230.89V172.6H223.366Z" fill="black"/>
<path d="M90 0C44.672 27.1528 14.5986 74.867 14.5986 129.195C14.5987 182.401 43.4434 229.263 87.2119 256.681C36.7095 239.865 8.22384e-05 188.967 0 128.786C0 67.5031 38.0659 15.8442 90 0Z" fill="black"/>
</svg>
