<svg width="548" height="257" viewBox="0 0 548 257" fill="none" xmlns="http://www.w3.org/2000/svg">
<path d="M268.712 162V94.8001H273.608V157.584H312.296V162H268.712Z" fill="white"/>
<path d="M324.868 162V94.8001H329.764V162H324.868Z" fill="white"/>
<path d="M381.885 162.48C376.829 162.48 372.157 161.648 367.869 159.984C363.581 158.256 359.837 155.856 356.637 152.784C353.501 149.712 351.069 146.128 349.341 142.032C347.613 137.872 346.749 133.328 346.749 128.4C346.749 123.472 347.613 118.96 349.341 114.864C351.069 110.704 353.533 107.088 356.733 104.016C359.933 100.944 363.645 98.5761 367.869 96.9121C372.157 95.1841 376.861 94.3201 381.981 94.3201C386.845 94.3201 391.357 95.0881 395.517 96.6241C399.677 98.1601 403.229 100.464 406.173 103.536L403.101 106.8C400.157 103.92 396.925 101.872 393.405 100.656C389.949 99.4401 386.173 98.8321 382.077 98.8321C377.725 98.8321 373.693 99.5681 369.981 101.04C366.269 102.512 363.037 104.592 360.285 107.28C357.533 109.968 355.389 113.104 353.853 116.688C352.381 120.272 351.645 124.176 351.645 128.4C351.645 132.624 352.381 136.528 353.853 140.112C355.389 143.696 357.533 146.832 360.285 149.52C363.037 152.208 366.269 154.288 369.981 155.76C373.693 157.232 377.725 157.968 382.077 157.968C386.045 157.968 389.789 157.36 393.309 156.144C396.893 154.928 400.157 152.912 403.101 150.096L405.885 153.84C402.877 156.72 399.261 158.896 395.037 160.368C390.877 161.776 386.493 162.48 381.885 162.48ZM401.181 153.36V128.688H405.885V153.84L401.181 153.36Z" fill="white"/>
<path d="M477.255 94.8001H482.151V162H477.255V94.8001ZM432.327 162H427.431V94.8001H432.327V162ZM477.831 130.032H431.751V125.712H477.831V130.032Z" fill="white"/>
<path d="M518.482 162V99.2161H494.29V94.8001H547.57V99.2161H523.378V162H518.482Z" fill="white"/>
<path d="M92.856 162.96C87.608 162.96 82.584 162.224 77.784 160.752C72.984 159.216 69.176 157.264 66.36 154.896L70.68 145.2C73.368 147.312 76.696 149.072 80.664 150.48C84.632 151.888 88.696 152.592 92.856 152.592C96.376 152.592 99.224 152.208 101.4 151.44C103.576 150.672 105.176 149.648 106.2 148.368C107.224 147.024 107.736 145.52 107.736 143.856C107.736 141.808 107 140.176 105.528 138.96C104.056 137.68 102.136 136.688 99.768 135.984C97.464 135.216 94.872 134.512 91.992 133.872C89.176 133.232 86.328 132.496 83.448 131.664C80.632 130.768 78.04 129.648 75.672 128.304C73.368 126.896 71.48 125.04 70.008 122.736C68.536 120.432 67.8 117.488 67.8 113.904C67.8 110.256 68.76 106.928 70.68 103.92C72.664 100.848 75.64 98.4161 79.608 96.6241C83.64 94.7681 88.728 93.8401 94.872 93.8401C98.904 93.8401 102.904 94.3521 106.872 95.3761C110.84 96.4001 114.296 97.8721 117.24 99.7921L113.304 109.488C110.296 107.696 107.192 106.384 103.992 105.552C100.792 104.656 97.72 104.208 94.776 104.208C91.32 104.208 88.504 104.624 86.328 105.456C84.216 106.288 82.648 107.376 81.624 108.72C80.664 110.064 80.184 111.6 80.184 113.328C80.184 115.376 80.888 117.04 82.296 118.32C83.768 119.536 85.656 120.496 87.96 121.2C90.328 121.904 92.952 122.608 95.832 123.312C98.712 123.952 101.56 124.688 104.376 125.52C107.256 126.352 109.848 127.44 112.152 128.784C114.52 130.128 116.408 131.952 117.816 134.256C119.288 136.56 120.024 139.472 120.024 142.992C120.024 146.576 119.032 149.904 117.048 152.976C115.128 155.984 112.152 158.416 108.12 160.272C104.088 162.064 99 162.96 92.856 162.96Z" fill="white"/>
<path d="M143.535 146.16L142.863 131.376L178.095 94.8001H192.111L162.831 125.904L155.919 133.488L143.535 146.16ZM132.399 162V94.8001H144.879V162H132.399ZM179.247 162L153.519 131.376L161.775 122.256L193.839 162H179.247Z" fill="white"/>
<path d="M214.067 162V135.408L216.851 143.088L187.667 94.8001H201.011L224.435 133.68H216.947L240.563 94.8001H252.851L223.667 143.088L226.547 135.408V162H214.067Z" fill="white"/>
<path d="M106 0C60.672 27.1528 30.5986 74.867 30.5986 129.195C30.5987 182.401 59.4434 229.263 103.212 256.681C52.7095 239.865 16.0001 188.967 16 128.786C16 67.5031 54.0659 15.8442 106 0Z" fill="white"/>
</svg>
