<svg width="549" height="257" viewBox="0 0 549 257" fill="none" xmlns="http://www.w3.org/2000/svg">
<path d="M93.496 162.62C88.248 162.62 83.224 161.884 78.424 160.412C73.624 158.876 69.816 156.924 67 154.556L71.32 144.86C74.008 146.972 77.336 148.732 81.304 150.14C85.272 151.548 89.336 152.252 93.496 152.252C97.016 152.252 99.864 151.868 102.04 151.1C104.216 150.332 105.816 149.308 106.84 148.028C107.864 146.684 108.376 145.18 108.376 143.516C108.376 141.468 107.64 139.836 106.168 138.62C104.696 137.34 102.776 136.348 100.408 135.644C98.104 134.876 95.512 134.172 92.632 133.532C89.816 132.892 86.968 132.156 84.088 131.324C81.272 130.428 78.68 129.308 76.312 127.964C74.008 126.556 72.12 124.7 70.648 122.396C69.176 120.092 68.44 117.148 68.44 113.564C68.44 109.916 69.4 106.588 71.32 103.58C73.304 100.508 76.28 98.076 80.248 96.284C84.28 94.428 89.368 93.5 95.512 93.5C99.544 93.5 103.544 94.012 107.512 95.036C111.48 96.06 114.936 97.532 117.88 99.452L113.944 109.148C110.936 107.356 107.832 106.044 104.632 105.212C101.432 104.316 98.36 103.868 95.416 103.868C91.96 103.868 89.144 104.284 86.968 105.116C84.856 105.948 83.288 107.036 82.264 108.38C81.304 109.724 80.824 111.26 80.824 112.988C80.824 115.036 81.528 116.7 82.936 117.98C84.408 119.196 86.296 120.156 88.6 120.86C90.968 121.564 93.592 122.268 96.472 122.972C99.352 123.612 102.2 124.348 105.016 125.18C107.896 126.012 110.488 127.1 112.792 128.444C115.16 129.788 117.048 131.612 118.456 133.916C119.928 136.22 120.664 139.132 120.664 142.652C120.664 146.236 119.672 149.564 117.688 152.636C115.768 155.644 112.792 158.076 108.76 159.932C104.728 161.724 99.64 162.62 93.496 162.62Z" fill="black"/>
<path d="M144.175 145.82L143.503 131.036L178.735 94.46H192.751L163.471 125.564L156.559 133.148L144.175 145.82ZM133.039 161.66V94.46H145.519V161.66H133.039ZM179.887 161.66L154.159 131.036L162.415 121.916L194.479 161.66H179.887Z" fill="black"/>
<path d="M214.707 161.66V135.068L217.491 142.748L188.307 94.46H201.651L225.075 133.34H217.587L241.203 94.46H253.491L224.307 142.748L227.187 135.068V161.66H214.707Z" fill="black"/>
<path d="M269.491 161.66V94.46H274.387V157.244H313.075V161.66H269.491Z" fill="black"/>
<path d="M325.648 161.66V94.46H330.544V161.66H325.648Z" fill="black"/>
<path d="M382.664 162.14C377.608 162.14 372.936 161.308 368.648 159.644C364.36 157.916 360.616 155.516 357.416 152.444C354.28 149.372 351.848 145.788 350.12 141.692C348.392 137.532 347.528 132.988 347.528 128.06C347.528 123.132 348.392 118.62 350.12 114.524C351.848 110.364 354.312 106.748 357.512 103.676C360.712 100.604 364.424 98.236 368.648 96.572C372.936 94.844 377.64 93.98 382.76 93.98C387.624 93.98 392.136 94.748 396.296 96.284C400.456 97.82 404.008 100.124 406.952 103.196L403.88 106.46C400.936 103.58 397.704 101.532 394.184 100.316C390.728 99.1 386.952 98.492 382.856 98.492C378.504 98.492 374.472 99.228 370.76 100.7C367.048 102.172 363.816 104.252 361.064 106.94C358.312 109.628 356.168 112.764 354.632 116.348C353.16 119.932 352.424 123.836 352.424 128.06C352.424 132.284 353.16 136.188 354.632 139.772C356.168 143.356 358.312 146.492 361.064 149.18C363.816 151.868 367.048 153.948 370.76 155.42C374.472 156.892 378.504 157.628 382.856 157.628C386.824 157.628 390.568 157.02 394.088 155.804C397.672 154.588 400.936 152.572 403.88 149.756L406.664 153.5C403.656 156.38 400.04 158.556 395.816 160.028C391.656 161.436 387.272 162.14 382.664 162.14ZM401.96 153.02V128.348H406.664V153.5L401.96 153.02Z" fill="black"/>
<path d="M478.034 94.46H482.93V161.66H478.034V94.46ZM433.106 161.66H428.21V94.46H433.106V161.66ZM478.61 129.692H432.53V125.372H478.61V129.692Z" fill="black"/>
<path d="M519.262 161.66V98.876H495.07V94.46H548.35V98.876H524.158V161.66H519.262Z" fill="black"/>
<path d="M106 0C60.672 27.1528 30.5986 74.867 30.5986 129.195C30.5987 182.401 59.4434 229.263 103.212 256.681C52.7095 239.865 16.0001 188.967 16 128.786C16 67.5031 54.0659 15.8442 106 0Z" fill="black"/>
</svg>
