<svg width="253" height="257" viewBox="0 0 253 257" fill="none" xmlns="http://www.w3.org/2000/svg">
<path d="M76.856 157.96C71.608 157.96 66.584 157.224 61.784 155.752C56.984 154.216 53.176 152.264 50.36 149.896L54.68 140.2C57.368 142.312 60.696 144.072 64.664 145.48C68.632 146.888 72.696 147.592 76.856 147.592C80.376 147.592 83.224 147.208 85.4 146.44C87.576 145.672 89.176 144.648 90.2 143.368C91.224 142.024 91.736 140.52 91.736 138.856C91.736 136.808 91 135.176 89.528 133.96C88.056 132.68 86.136 131.688 83.768 130.984C81.464 130.216 78.872 129.512 75.992 128.872C73.176 128.232 70.328 127.496 67.448 126.664C64.632 125.768 62.04 124.648 59.672 123.304C57.368 121.896 55.48 120.04 54.008 117.736C52.536 115.432 51.8 112.488 51.8 108.904C51.8 105.256 52.76 101.928 54.68 98.9201C56.664 95.8481 59.64 93.4161 63.608 91.6241C67.64 89.7681 72.728 88.8401 78.872 88.8401C82.904 88.8401 86.904 89.3521 90.872 90.3761C94.84 91.4001 98.296 92.8721 101.24 94.7921L97.304 104.488C94.296 102.696 91.192 101.384 87.992 100.552C84.792 99.6561 81.72 99.2081 78.776 99.2081C75.32 99.2081 72.504 99.6241 70.328 100.456C68.216 101.288 66.648 102.376 65.624 103.72C64.664 105.064 64.184 106.6 64.184 108.328C64.184 110.376 64.888 112.04 66.296 113.32C67.768 114.536 69.656 115.496 71.96 116.2C74.328 116.904 76.952 117.608 79.832 118.312C82.712 118.952 85.56 119.688 88.376 120.52C91.256 121.352 93.848 122.44 96.152 123.784C98.52 125.128 100.408 126.952 101.816 129.256C103.288 131.56 104.024 134.472 104.024 137.992C104.024 141.576 103.032 144.904 101.048 147.976C99.128 150.984 96.152 153.416 92.12 155.272C88.088 157.064 83 157.96 76.856 157.96Z" fill="white"/>
<path d="M127.535 141.16L126.863 126.376L162.095 89.8001H176.111L146.831 120.904L139.919 128.488L127.535 141.16ZM116.399 157V89.8001H128.879V157H116.399ZM163.247 157L137.519 126.376L145.775 117.256L177.839 157H163.247Z" fill="white"/>
<path d="M198.067 157V130.408L200.851 138.088L171.667 89.8001H185.011L208.435 128.68H200.947L224.563 89.8001H236.851L207.667 138.088L210.547 130.408V157H198.067Z" fill="white"/>
<path d="M211 187H116V165H211V187ZM161.421 170.076C160.514 170.076 159.677 170.22 158.909 170.508C158.152 170.785 157.496 171.185 156.941 171.708C156.387 172.231 155.955 172.85 155.646 173.564C155.336 174.268 155.181 175.047 155.181 175.9C155.181 176.754 155.336 177.537 155.646 178.252C155.955 178.956 156.381 179.569 156.925 180.092C157.479 180.614 158.135 181.02 158.893 181.308C159.65 181.585 160.472 181.724 161.357 181.724C162.168 181.724 162.994 181.602 163.837 181.356C164.574 181.142 165.234 180.845 165.816 180.467L166.062 180.3V175.66H163.261V178.736C163.148 178.789 163.036 178.836 162.925 178.876C162.477 179.025 162.018 179.1 161.549 179.1C161.08 179.1 160.648 179.025 160.253 178.876C159.869 178.716 159.538 178.497 159.261 178.22C158.984 177.932 158.765 177.591 158.605 177.196C158.456 176.802 158.381 176.37 158.381 175.9C158.381 175.41 158.456 174.972 158.605 174.588C158.765 174.193 158.984 173.857 159.261 173.58C159.538 173.292 159.874 173.073 160.269 172.924C160.663 172.774 161.101 172.7 161.581 172.7C162.125 172.7 162.616 172.806 163.053 173.02C163.501 173.222 163.917 173.532 164.301 173.948L166.317 172.124C165.773 171.463 165.085 170.956 164.253 170.604C163.421 170.252 162.477 170.076 161.421 170.076ZM124.569 170.3V181.5H133.081V178.988H127.737V170.3H124.569ZM142.335 170.3V181.5H145.503V170.3H142.335ZM176.069 170.3V181.5H179.237V177.132H183.558V181.5H186.726V170.3H183.558V174.508H179.237V170.3H176.069ZM195.904 170.3V172.812H199.344V181.5H202.512V172.812H205.937V170.3H195.904Z" fill="white"/>
<path d="M90 0C44.672 27.1528 14.5986 74.867 14.5986 129.195C14.5987 182.401 43.4434 229.263 87.2119 256.681C36.7095 239.865 8.22384e-05 188.967 0 128.786C0 67.5031 38.0659 15.8442 90 0Z" fill="white"/>
</svg>
